<?xml version="1.0" encoding="UTF-8"?><svg id="Capa_1" xmlns="http://www.w3.org/2000/svg" viewBox="0 0 1921 1099"><defs><style>.cls-1{opacity:.05;}.cls-2{fill:#0c3756;}</style></defs><g class="cls-1"><polyline class="cls-2" points="761.85 527.3 765.78 527.46 767.37 528.27 770.3 528.1"/><polygon class="cls-2" points="1553 724.47 1544.94 733.39 1539.25 737.39 1544.94 733.39 1553 724.47"/><polygon class="cls-2" points="715.2 479.68 762.51 480.35 762.54 480.35 715.2 479.68"/><polygon class="cls-2" points="754.64 569.43 757.36 567.57 749.89 572.64 754.64 569.43"/><polygon class="cls-2" points="1425.88 875.21 1427.67 866.85 1426.08 864.14 1427.65 866.85 1425.88 875.21"/><polygon class="cls-2" points="1494.25 831.8 1494.25 831.8 1489.73 829.81 1494.25 831.8"/><polygon class="cls-2" points="1434.82 892.19 1437.09 889.91 1449.85 887.56 1437.07 889.91 1434.82 892.19"/><polygon class="cls-2" points="1276 1053.53 1275.37 1051.04 1274.03 1045.57 1276 1053.53"/><polygon class="cls-2" points="1367.52 917.39 1378.35 925.13 1384.64 925.95 1378.35 925.13 1367.52 917.39"/><polygon class="cls-2" points="1342.43 779.06 1346.86 781.17 1348.53 790.92 1346.86 781.13 1342.43 779.06"/><polygon class="cls-2" points="1235.64 760.65 1240.07 758.58 1240.06 758.58 1235.64 760.65"/><polygon class="cls-2" points="1335.13 826.34 1335.13 826.39 1337.21 820.07 1335.13 826.34"/><polygon class="cls-2" points="1211.24 749.72 1217.43 754.47 1225.11 757.56 1217.43 754.44 1211.24 749.72"/><polygon class="cls-2" points="1425.4 480.67 1434.03 479.6 1431.09 476.88 1425.4 480.67"/><polygon class="cls-2" points="1506.53 477.25 1502.6 481.97 1507.31 485.97 1508.68 481.42 1506.53 477.25"/><polygon class="cls-2" points="1484.72 492.68 1480 485.6 1476.07 488.14 1479.02 491.96 1484.72 492.68"/><polygon class="cls-2" points="1502.19 496.14 1504.76 498.85 1510.84 496.87 1502.6 491.96 1502.19 496.14"/><polygon class="cls-2" points="1467.05 469.24 1467.82 471.62 1474.3 475.77 1474.5 470.33 1478.64 465.96 1471.56 466.16 1467.05 469.24"/><polygon class="cls-2" points="1419.13 472.53 1411.52 470.65 1407.01 474.73 1417.06 474.18 1419.13 472.53"/><polygon class="cls-2" points="1362.54 476.16 1375.51 476.71 1379.04 477.81 1388.46 475.61 1392.01 477.25 1401.03 473.43 1408.11 466.35 1403 464.9 1401.63 461.82 1398.29 460.35 1387.09 461.82 1367.25 460.18 1365.08 463.81 1360.36 465.96 1360.96 469.44 1360.18 471.96 1362.54 476.16"/><polygon class="cls-2" points="1327.75 470.01 1324.69 467.01 1322.92 467.81 1324.99 471.37 1328.74 472.81 1332.19 470.55 1327.75 470.01"/><polygon class="cls-2" points="1336.02 457.62 1333.64 454.02 1322.64 448.2 1318.53 448.2 1311.86 446.19 1307.33 446.38 1300.06 443.1 1292.41 438.92 1287.1 438.92 1290.84 437.65 1298.51 439.66 1310.28 440.73 1314.99 439.11 1311.46 436.58 1308.31 437.12 1299.48 435.48 1295.15 427.68 1290.24 427.68 1287.88 428.58 1284.34 426.22 1261.57 421.68 1259.01 423.12 1253.89 421.87 1244.87 423.3 1242.01 428.08 1242.79 430.64 1240.04 435.38 1242.21 439.37 1240.45 444.8 1236.12 446.81 1235.32 448.81 1237.88 454.06 1237.67 458.24 1237.29 461.33 1230.81 467.67 1231.27 470.49 1234.25 470.7 1237.21 476.35 1235.43 480.51 1240.34 482.33 1241.73 484.88 1245.26 486.52 1248.59 479.06 1255.29 470.89 1254.49 468.37 1256.85 464.71 1260 467.45 1263.72 467.81 1267.06 461.64 1270.99 463.81 1271.38 468.71 1274.53 470.54 1281.79 468.71 1289.07 462.53 1296.92 461.26 1305.37 462.36 1310.67 460.53 1314.6 463.43 1320.89 463.81 1328.56 465.63 1330.11 461.64 1333.46 461.64 1336.02 457.62"/><polygon class="cls-2" points="982.42 440.73 984.19 437.12 978.68 437.29 976.92 441.48 982.42 440.73"/><polygon class="cls-2" points="1108.54 468.53 1103.42 460.71 1082.61 459.64 1072.39 461.64 1066.31 461.08 1061.78 461.99 1058.65 466.16 1063.74 469.79 1067.28 468.71 1070.63 470.17 1073.76 476.71 1077.49 479.43 1083.79 479.24 1088.11 482.33 1094.58 482.52 1094.79 477.25 1099.5 477.25 1101.65 479.6 1104.41 478.88 1106.57 474.69 1110.3 476.52 1119.34 476.52 1119.93 474.15 1115.41 469.79 1108.54 468.53"/><polygon class="cls-2" points="1211.08 453.47 1209.9 449.65 1204.59 446 1199.88 448.2 1203.42 450.91 1211.08 453.47"/><path class="cls-2" d="M1237.29,461.33l.39-3.09,.2-4.18-2.55-5.26,.8-2,4.33-2.01,1.76-5.43-2.17-3.99,2.75-4.74-.79-2.55-.08,.13-4.92-1.08-4.72,.91-4.72-4.36-11.58-1.28-3.34,1.84-4.72-1.48h-10.22l-1.57,2.73c.21,0,5.52,2.93,5.52,2.93l14.53,4.52-1.57,2.54,1.95,4-1.95,6.33,2.55,4.38,5.1,1.27,5.9,4.9-1.38,3.09-11.19-.36-2.17,1.43-4.71-1.26-6.48,.55-5.7-2.19-6.69,2.55-.38-2.55-2.37-.88-8.44,1.99-4.51-4.03-5.69,2.73-2.18,3.09,1.97,4.18,6.48,.73,6.68,7.08,2.94,.91,.6-4.35,2.93-2.2h11.99l5.11,2.55,14.92,.35,2.76-1.64,4.51,2.01,4.08,.32-.46-2.82,6.48-6.34Z"/><polygon class="cls-2" points="1224.44 419.52 1215 414.42 1210.1 416.93 1214.22 419.68 1224.44 419.52"/><polygon class="cls-2" points="1134.26 426.23 1148.26 423.23 1150.13 420.43 1153.51 420.95 1157.45 418.04 1166.68 419.13 1173.56 417.51 1176.51 412.42 1174.16 410.05 1169.24 409.52 1165.9 402.6 1153.91 398.09 1139.76 398.09 1136.04 396.78 1138.98 394.25 1140.95 388.07 1137.62 386.98 1133.08 388.63 1127.99 388.27 1118.16 381.56 1115.41 383.92 1111.1 380.28 1103.83 375.2 1099.5 379.36 1097.35 377.01 1098.52 373.91 1095.57 372.65 1093.81 375.72 1090.47 372.48 1080.06 370.28 1073.18 364.29 1066.9 361.04 1060.01 356.11 1044.9 355.41 1039.39 353.03 1037.42 347.57 1031.13 341.24 1026.23 342.31 1023.67 339.41 1003.44 336.67 996.75 339.05 988.32 337.42 983.4 331.98 970.83 329.95 959.83 330.36 954.32 334.51 939.4 335.23 928.01 337.78 923.88 341.24 912.29 344.31 908.37 348.68 903.45 351.21 902.67 357.04 905.82 360.88 904.44 363.2 899.92 360.88 890.29 366.11 886.37 365.01 886.16 368.29 891.27 370.65 896.77 364.82 898.73 365.93 898.94 369.91 905.63 366.3 910.32 365.93 915.82 358.11 922.91 359.4 925.65 357.22 929.18 359.77 934.69 358.84 942.74 349.75 947.45 348.87 950.79 345.4 958.24 346.51 963.56 346.33 975.55 347.57 978.68 350.3 975.55 352.7 969.45 352.13 965.33 354.85 969.45 357.95 985.57 360.31 988.91 359.21 993.81 359.21 998.14 362.66 1005.8 363.57 1009.53 363.39 1011.54 360.64 1015.1 363.1 1015.48 365.84 1024.36 371.76 1031.37 372.83 1034.31 371.29 1038.95 374.92 1044.07 374.21 1048.13 375.92 1055.71 373.56 1058.95 374.65 1063.39 389.66 1072.46 399.58 1076.89 399.68 1078.86 398.03 1084.97 401.42 1094.63 401.51 1096.03 404.04 1100.46 405.5 1099.76 410.4 1092.87 411.95 1083.79 419.52 1083.59 424.05 1093.05 425.59 1099.45 422.52 1104.2 424.34 1117.51 421.5 1124.9 422.32 1134.26 426.23"/><polygon class="cls-2" points="939.7 375.38 937.32 373.85 938.12 376.48 944.13 378.73 951.81 376.65 952.6 372 947.87 366.82 942.93 365.84 940.97 369.46 942.46 372.39 945.01 373.94 942.46 375.84 939.7 375.38"/><polygon class="cls-2" points="1178.47 353.94 1177.88 356.67 1180.63 356.84 1192.41 350.5 1192.81 344.68 1191.83 342.31 1186.52 343.78 1186.92 347.94 1181.42 353.58 1178.47 353.94"/><polygon class="cls-2" points="1209.71 379 1212.65 380.66 1212.65 376.06 1209.71 379"/><polygon class="cls-2" points="1159.22 336.33 1162.56 340.15 1165.9 340.5 1161.18 332.54 1159.61 326.36 1154.9 318.34 1154.12 321.44 1157.64 327.8 1154.7 329.59 1159.22 336.33"/><polygon class="cls-2" points="1153.38 295.32 1147.97 291.7 1147.09 294.78 1151.21 299.16 1152.3 306.07 1150.03 308.41 1152.39 311.26 1158.8 310.79 1159.1 307.8 1154.87 300.68 1153.38 295.32"/><polygon class="cls-2" points="1134.46 320.18 1138.8 320.18 1135.44 315.98 1134.46 320.18"/><polygon class="cls-2" points="1206.76 354.66 1209.12 357.22 1214.22 356.84 1219.32 359.02 1219.71 357.04 1211.47 352.7 1206.76 354.66"/><polygon class="cls-2" points="1174.54 310.72 1177.29 313.08 1179.64 308.9 1177.88 305.65 1174.54 310.72"/><polygon class="cls-2" points="1176.12 338.15 1175.72 341.24 1179.07 344.85 1183.17 345.59 1182.59 341.4 1176.12 338.15"/><polygon class="cls-2" points="1198.92 385.16 1192.41 388.98 1191.05 396.41 1205.18 395 1209.71 389.37 1209.71 383.36 1207.74 384.46 1204.4 388.07 1198.92 385.16"/><polygon class="cls-2" points="1090.49 318.81 1095.02 317.99 1097.48 313.52 1096.03 310.24 1096.71 306.78 1094.53 304.68 1087.53 308.23 1087.73 312.6 1090.49 318.81"/><polygon class="cls-2" points="1067.84 745.7 1071.18 743.25 1073.06 737.13 1076.99 730.68 1074.53 724.39 1073.65 721.1 1074.8 716.71 1072.56 714.86 1068.83 712.87 1067.85 710.15 1062.95 704.89 1051.55 698.7 1044.87 697.25 1032.88 697.25 1028.96 696.36 1027.38 694.01 1023.26 692.36 1020.51 692.71 1012.85 697.79 1004.59 699.61 987.9 707.43 983 711.77 978.28 712.33 969.43 711.94 960 705.97 953.73 703.24 952.14 704.53 955.29 706.34 955.29 708.91 950.96 709.6 946.45 707.43 945.07 705.43 946.15 704.43 948.03 703.88 946.54 702.32 944.38 702.5 941.04 701.5 938.08 698.59 936.98 695.8 932.2 695.61 929.65 697.23 929.84 701.61 926.51 705.05 925.72 709.02 928.86 709.95 932.2 714.32 927.89 717.4 926.69 721.38 926.85 724.04 928.62 726.49 932.47 726.11 937.1 726.83 942.11 726.01 944.67 724.29 947.03 726.64 946.73 728.49 949.8 729.31 959.72 730.57 961.02 737.03 964.44 743.5 968.78 745.87 973.3 745.7 974.98 742.67 973.11 740.77 974.89 738.12 978.53 738.68 980.2 740.77 979.22 743.5 980.6 748.6 979.61 752.27 981.38 755.08 989.06 756.18 992.31 751.44 996.04 747.88 1000.96 748.6 1003.72 747.79 1004.11 742.67 999.89 739.22 995.35 736.21 993.28 732.11 994.18 729.31 998.71 727.11 1007.26 725.4 1014.94 718.9 1014.66 716.53 1013.06 715.39 1013.67 710.52 1021.82 706.51 1028.42 705.97 1031.86 707.69 1036.79 712.14 1040.43 712.8 1045.16 718.64 1047.03 723.29 1049.88 725.4 1051.55 724.1 1055.09 720.29 1058.04 720.2 1059.33 723.67 1057.05 725.83 1054.3 726.18 1049.77 732.48 1047.61 734.4 1049.88 740.96 1055.99 748.81 1061.62 753.47 1065.18 745.87 1067.84 745.7"/><polygon class="cls-2" points="926.69 721.38 927.89 717.4 932.2 714.32 928.86 709.95 925.72 709.02 926.51 705.05 929.84 701.61 929.65 697.23 932.2 695.61 936.98 695.8 936.5 694.57 932.56 691.94 928.24 690.76 925.27 687.39 923.61 683.28 918.1 678.17 914.75 673.26 913.97 667.79 912.09 663.33 909.53 663.85 908.73 666.2 903.04 666.2 904.27 664.38 901.35 664.38 898.61 665.82 892.92 661.11 892.92 659.08 889.37 658.01 886.43 654.19 878.97 654.56 874.05 655.3 859.32 651.28 850.08 652.57 850.08 654.01 848.2 654.73 848.82 655.12 847.25 660.77 845.48 662.22 847.06 663.49 851.17 664.4 852.36 669.47 847.65 672.02 845.1 677.82 846.27 682.73 853.54 688.52 860.8 688.72 865.12 691.29 867.68 695.44 870.22 695.44 873.38 690.37 872 685.99 864.74 681.1 862.97 678.37 865.32 676.55 870.04 679.99 875.15 682.37 875.53 686.54 880.84 689.97 882.61 695.08 888.89 698.36 893.61 702.34 897.14 704.36 903.04 710.69 904.02 713.07 900.48 717.24 900.48 720.67 902.83 724.12 909.33 726.33 913.65 728.86 915.81 727.75 916.39 723.59 913.84 720.48 909.12 718.33 909.12 717.42 911.1 716.15 914.04 718.14 918.76 723.38 918.56 727.95 920.42 728.95 921.89 729.76 923.81 731.78 927.26 731.94 928.16 729.48 927.84 726.54 928.62 726.49 926.85 724.04 926.69 721.38"/><path class="cls-2" d="M850.08,652.57l9.24-1.29,14.73,4.02,4.92-.73,7.46-.38,2.95,3.82,3.54,1.07v2.02l5.69,4.71,2.74-1.43h2.91l.33-.54,2.56-1.46-.78-3.81-2.95-3.27-1.38-5.25,3.34-6.01,1.77-4,.19-5.26-1.56,2.92-.79,2.35-2.73,1.46v-3.63l1.37-4,2.55-5.46-.78-3.25,.2-3.43,3.13-7.47,2.37,.55-.99,2.01s-.2,3.06-.2,3.97v5.28l1.51,.16,2.15-3.37,1.29-9.74-.11-11.66,.99-2.47-2.07-2.91-1.78-.72,.1-2.54,1.88-1.82,1.67,.18,.98,1.55,1.68-6.31,4.42-5.18,2.07-3.37,.49-2.55-2.66-1.74-.3-2.18,1.62-3.23-.78-4.19,.39-6.71,1.58-2.7,1.65-1.64-3.14,.52-3.85,.36-1.07-2.01h-3.05l-2.37,1.19-1.09,3.36-3.63,1.55-4.78,3.15-4.52,.37-1.17,3.06-3.55-.89-4.92,.72-.98-2.17-3.73-2.71-2.16,.14-1.19,4.57-5.1,.17-4.33,6.17-.39,2.73-2.57,1.27-5.48,4.9-5.7,2-1.58,2.71-3.74-1.25-2.75,.69-3.13-2.7-6.5-1.09-9.03,4.54-8.44,.9,.59,4.73v3.64l-.79,6.53-1.96,3.6-6.68,.56-4.6,.74-.19,2.74-2.16,.37-4.91-1.62-.99,1.62,9.82,11.07,4.72,2.9v3.09l7.85,6.53,6.88,8.71,12.57,12.72,3.34,.38,1.93,1.23,1.88-.72v-1.45Z"/><polygon class="cls-2" points="750.47 594.44 752.76 594.3 750.46 594.44 750.47 594.44"/><polygon class="cls-2" points="820.62 603.68 822.58 600.08 823.37 593.55 823.37 589.91 822.78 585.17 831.23 584.27 840.25 579.73 846.75 580.82 849.88 583.52 852.63 582.84 856.37 584.09 857.95 581.37 863.64 579.38 869.12 574.48 871.69 573.2 872.08 570.47 876.41 564.3 881.5 564.13 882.7 559.57 884.86 559.42 888.58 562.14 889.56 564.3 894.48 563.58 898.02 564.47 899.19 561.41 903.71 561.04 908.49 557.89 912.13 556.34 913.21 552.98 915.59 551.79 918.63 551.79 919.71 553.8 923.56 553.43 926.69 552.91 928.37 551.25 926.8 548.72 920.51 544 914.62 541.63 914.23 542.54 916.6 546.72 910.69 546.52 903.63 545.82 900.87 543.81 895.77 543.25 891.25 543.25 892.43 541.27 895.96 540.34 895.58 538 897.93 537.45 902.26 538.36 909.53 540.34 910.5 539.65 905.59 536.01 898.92 532.55 894.2 532.18 889.68 533.1 886.72 531.81 885.55 534.91 882.02 532.55 870.04 531.48 858.45 530.94 852.14 526.01 846.46 523.46 845.28 526.55 847.43 528.03 843.13 529.66 840.38 531.48 835.85 530.01 826.82 532.18 815.22 531.28 799.12 531.65 792.04 535.27 788.73 532.76 787.82 534.88 784.27 537.25 782.51 541.61 774.84 545.75 770.71 545.59 763.64 552.31 759.32 556.5 760.7 560.85 757.36 567.57 754.64 569.43 756.73 568.01 761.26 568.93 762.14 570.2 765.2 571.2 767.75 573.94 772.97 573.2 778.48 574.3 781.83 578.29 782.7 581.23 786.06 583.34 787.15 581.05 788.32 578.2 792.95 577.75 795.61 578.59 799.26 579.78 799.26 583.87 798.07 588.6 798.66 590.51 797.28 594.34 797.95 596.67 798.14 596.48 801.08 597.93 802.46 599.74 804.81 599.54 805.99 597.93 808.16 599.01 808.16 602.1 809.34 604.81 809.33 604.98 813.94 604.24 820.62 603.68"/><polygon class="cls-2" points="798.66 590.51 798.07 588.6 799.26 583.87 799.26 579.78 795.61 578.59 792.95 577.75 788.32 578.2 787.15 581.05 786.06 583.34 782.7 581.23 781.83 578.29 778.48 574.3 772.97 573.2 767.75 573.94 765.2 571.2 762.14 570.2 761.26 568.93 756.73 568.01 754.64 569.43 749.89 572.64 749.89 573.46 749.89 575.39 745.17 576.66 738.5 578.11 733.38 583.18 733.19 585.75 731.24 588.6 733.71 589.4 739 589.4 743.33 593.22 749.62 594.47 750.46 594.44 752.76 594.3 761.99 598.11 770.63 602.47 771.81 600.31 767.89 598.29 769.84 597.2 774.76 597.38 778.88 602.47 781.83 604.81 794.21 604.99 797.74 600.49 796.37 598.11 797.95 596.67 797.95 596.67 797.28 594.34 798.66 590.51"/><polygon class="cls-2" points="780.34 464.77 779.2 466.78 778.12 470.55 774.69 474.9 774.38 475.97 772.31 476.43 771.29 477.75 770.05 476.98 769.79 475.04 765.87 474.86 762.93 476.71 762.54 480.35 762.51 480.35 762.6 480.46 761.85 527.3 765.78 527.46 767.37 528.27 770.3 528.1 770.25 528.03 772.41 523.83 777.52 518.93 780.46 521.28 788.12 511.49 790.88 504.61 791.06 496.24 788.12 493.5 789.3 486.05 792.25 481.54 793.03 469.19 793.81 466.46 793.21 463.73 789.7 463.73 786.95 466.08 785.61 463.81 783.64 463.67 780.34 464.77"/><polygon class="cls-2" points="733.38 583.18 738.5 578.11 745.17 576.66 749.89 575.39 749.89 573.46 749.89 572.64 757.36 567.57 760.7 560.85 759.32 556.5 763.64 552.31 770.71 545.59 774.84 545.75 782.51 541.61 784.27 537.25 787.82 534.88 788.73 532.76 786.55 531.11 781.64 530.56 780.27 533.65 775.95 530.94 772 530.94 770.3 528.1 767.37 528.27 765.78 527.46 761.85 527.3 762.6 480.46 762.51 480.35 715.2 479.68 714.11 492.93 702.71 493.83 706.74 496.94 708.21 499.49 712.54 504.5 716.88 507.15 719.91 507.15 721.99 510.52 722.58 514.16 724.45 516.09 729.09 516.34 732.02 517.88 732.13 521.19 729.38 524.08 694.54 524.28 678.2 548.14 678.72 552.2 679.16 553.48 678.72 556.05 679.86 558.05 680.59 558.67 680.33 560.88 677.89 562.64 676.81 565.37 675.89 566.08 680.27 571.05 683.6 576.14 687.75 576.5 691.48 580.69 705.8 585.76 714.27 585.94 720.74 585.23 731.24 588.6 733.19 585.75 733.38 583.18"/><polygon class="cls-2" points="677.89 562.64 680.33 560.88 680.59 558.67 679.86 558.05 678.72 556.05 679.16 553.48 678.72 552.2 678.2 548.14 694.54 524.28 729.38 524.08 732.13 521.19 732.02 517.88 729.09 516.34 724.45 516.09 722.58 514.16 721.99 510.52 719.91 507.15 716.88 507.15 712.54 504.5 708.21 499.49 706.74 496.94 702.71 493.83 714.11 492.93 715.2 479.68 762.54 480.35 762.93 476.71 765.87 474.86 769.79 475.04 770.05 476.98 771.29 477.75 772.31 476.43 774.38 475.97 774.69 474.9 778.12 470.55 779.2 466.78 780.34 464.77 783.64 463.67 785.61 463.81 785.56 463.73 790.28 459.91 796.18 453.55 799.32 452.67 798.73 457.75 796.18 460.11 796.37 461.56 802.46 465 804.62 469.71 805.8 468.63 810.9 460.46 815.22 444.67 817.98 440.51 815.43 440.85 812.68 443.38 810.32 442.29 810.32 440.31 816.4 434.32 817.38 430.68 812.87 430.68 809.34 427.95 811.1 426.16 816.4 423.05 816.99 416.33 819.35 412.69 831.32 402.73 837.42 393.27 841.74 386.91 841.34 381.37 833.4 372.1 828.27 372.48 829.46 375.38 826.31 376.48 813.71 373.56 803.09 373.94 803.49 376.48 796.8 379.37 794.43 377.2 787.74 377.93 783.81 383.02 760.6 382.67 742.88 386.67 742.88 390.3 747.23 390.66 736.98 401.22 736.21 416.84 736.98 418.66 727.16 428.47 727.16 437.21 721.92 443.03 717.79 443.94 705.61 449.94 706.6 450.85 711.91 447.56 710.52 451.92 710.33 459.18 705.03 465 701.88 465.17 700.71 467.89 697.56 465 691.27 462.44 692.65 459.36 697.95 456.84 690.29 454.82 687.94 457.75 682.03 456.1 674.77 456.27 669.87 460.11 663.58 460.28 653.95 461 652.37 463.19 640.99 469.19 637.84 469.19 635.48 466.65 626.25 468.45 619.72 471.24 617.64 464.87 611.46 456.94 603.47 453.85 601.7 451.92 594.23 451.73 591.66 452.3 588.03 448.75 576.71 436.34 575.23 432.26 575.63 428.42 570.6 421.57 568.11 415.95 553.18 401.06 551.99 396.19 548.85 391.82 550.82 388.38 549.45 384.91 546.3 374.55 542.17 371.13 542.97 365.68 549.06 372.94 549.84 381.84 551.6 380.36 551.42 372.94 544.33 362.59 545.12 357.13 543.37 347.52 541.98 343.5 546.3 338.24 547.68 326.26 546.3 318.45 549.26 305.92 548.85 302.28 550.82 298.82 549.06 296.64 549.06 290.66 551.81 288.12 553.57 281.04 554.75 278.68 551.2 276.15 554.55 272.33 554.55 265.25 559.26 265.61 558.48 270.12 557.51 272.7 560.64 272.33 561.43 267.96 565.56 262.52 567.13 256.9 569.28 254.72 570.07 248.18 570.87 245.64 567.13 248.54 565.56 255.8 560.84 258.71 562.18 255.08 559.8 253.99 558.13 250.91 553.18 249.8 548.06 247.44 539.11 244.65 534.69 240.6 531.23 238.82 527.78 239.28 524.58 238.16 523.92 237.48 521.61 234.95 521.9 228.39 516.4 213.65 515.95 212.12 515.97 210.83 516.49 206.15 516.98 201.69 512.46 197.32 509.9 193.11 508.61 188.19 504.39 186.11 503.21 182.91 500.94 181.55 497.4 172.34 496.02 168.88 493.06 167.51 492.67 161.58 491.98 157.76 490.51 155.58 488.45 150.3 484.21 144.27 478.9 140.18 476.54 136.44 472.93 134.75 469.42 135.35 468.24 133.89 466.18 132.94 461.01 133.3 456.33 132.67 451.41 132.62 449.88 135.66 447.72 136.04 447.18 135.25 445.16 134.8 442.02 135.86 439.17 138.47 435.22 145.28 432.86 148.06 433.4 149.39 432.81 151.51 430.11 152.17 426.22 155.04 425.69 156.62 423.12 157.58 420.8 157.21 419.18 155.49 413.67 152.9 409.09 151.51 408.35 149.8 402.79 147.18 399.69 147.15 397.88 145.41 397.54 143.83 396.55 142.01 393.95 141.04 392.22 141.12 389.95 139.04 388.28 139.08 388.48 137.72 387.26 134.16 383.53 130.05 378.81 124.87 378.81 123.03 381.95 122.31 383.53 121.23 383.33 117.4 380.19 114.66 379.3 112.76 377.72 112.46 375.86 110.38 375.27 104.82 372.81 101.17 369.06 98.89 365.72 97.99 367.09 96.06 367.39 93.79 363.26 90.6 359.02 89.15 359.92 86.68 357.44 83.32 354.59 83.23 354.1 80.95 351.74 78.31 347.4 72.56 342.29 69.65 298.2 68.38 297.65 77.6 219.66 75.41 126.94 36.18 127.93 34.2 126.55 32 61.25 33.07 62.08 39.17 65.81 52.05 68.95 57.5 71.91 61.12 69.74 62.6 68.95 66.57 70.73 71.3 77.99 79.48 77.79 82.2 76.02 83.83 77.21 86.92 82.9 91.65 83.69 96.54 81.92 98.89 81.53 103.99 84.86 106.73 86.44 109.61 86.63 118.16 89.19 125.05 93.9 129.24 97.04 129.05 104.7 136.13 108.63 141.23 109.82 145.21 116.49 151.38 119.23 159.01 121.59 159.91 125.13 165.36 121.99 169.19 121.79 171.9 123.76 174.81 122.38 178.81 119.23 177.52 116.49 180.25 117.08 181.53 121.59 182.26 120.82 185.34 118.86 187.9 115.11 185.71 108.43 184.62 104.32 183.16 97.24 183.7 95.85 185.16 101.37 191.87 106.28 193.88 106.67 198.79 109.42 203.31 114.14 204.78 120.41 207.5 120.41 210.04 123.95 209.86 127.48 211.13 126.71 212.95 128.66 216.58 132.21 215.12 135.74 214.93 140.46 209.86 142.62 210.4 140.85 214.6 142.23 222.57 151.66 230.93 155.59 232.55 158.34 231.83 161.09 235.64 164.42 245.27 165.21 255.61 163.44 263.79 158.92 270.88 159.71 274.87 165.02 278.85 167.37 278.34 168.74 281.77 174.04 282.86 176.59 287.75 188.2 299.38 192.31 301.02 194.28 304.48 198.41 309.01 204.1 309.56 206.66 312.83 207.25 319.53 210.4 321.9 210.77 325.7 213.14 330.96 216.49 331.89 224.72 328.43 229.64 321.55 230.04 315.18 226.69 313.2 225.13 308.66 222.57 306.28 221 301.58 216.87 299.38 215.1 296.12 212.36 292.82 209.8 291.57 208.23 292.66 208.43 296.12 206.07 297.02 205.29 294.13 201.16 291.03 196.45 285.76 195.85 282.73 198.6 277.52 198.4 272.24 194.27 266.96 195.45 263.48 195.35 260.4 192.69 257.58 192.91 253.99 189.76 250.71 189.76 245.82 188.2 243.45 187.61 237.11 188.78 233.47 187.22 224.02 183.87 218.93 182.29 215.48 180.34 215.12 180.14 217.12 180.34 220.02 178.38 221.66 173.46 214.76 173.07 211.5 174.83 207.87 173.26 205.33 170.91 205.14 169.33 194.97 164.81 188.25 162.65 187.53 157.55 183.16 157.36 177.18 157.94 171.9 153.42 165.36 149.9 164.65 147.73 162.45 147.14 157 143.6 153.55 139.08 151.56 137.71 147.03 138.69 143.75 137.12 137.03 129.65 132.31 127.1 128.69 124.16 128.49 124.35 123.61 120.61 116.33 117.66 113.43 120.03 109.25 119.23 91.65 117.87 80.94 120.23 75.29 122.78 66.57 121.79 61.86 119.83 56.05 123.37 61.86 130.63 64.94 135.55 72.03 138.69 74.58 143.21 73.86 145.76 72.03 150.28 76.02 151.85 78.93 157.15 79.11 162.85 82.01 162.85 84.56 159.12 88.55 159.5 92.9 162.27 98.89 163.64 107.62 165.99 111.62 166.78 117.61 165.6 120.88 167.56 125.24 174.24 133.95 173.86 136.49 172.28 138.85 174.04 142.31 176.21 142.31 178.17 145.04 181.12 153.2 184.85 154.83 186.43 158.84 187.02 164.65 189.18 166.82 192.71 167.73 195.66 173.56 197.23 177.9 200.77 180.61 201.94 182.97 205.48 183.16 207.43 184.62 211.18 183.16 214.12 185.34 213.93 191.16 211.77 194.23 212.74 201.15 222.17 208.95 225.51 208.59 228.85 209.68 227.68 214.22 230.04 218.38 234.75 219.48 239.07 218.93 243.79 224.38 244.57 228.2 248.3 230.02 250.06 228.39 251.45 230.02 252.23 233.29 250.06 235.64 247.32 232.92 243.79 234.02 239.07 238.73 236.33 245.82 237.11 250.91 241.61 253.8 246.55 254.17 249.68 256.7 260.48 264.51 266.76 265.97 270.1 265.97 271.47 268.89 273.45 273.59 275.62 276.69 273.45 281.04 270.1 282.3 270.5 284.11 275.02 286.5 283.07 289.58 283.46 292.66 286.02 294.3 293.29 300.11 301.54 310.12 307.63 320.42 316.46 328.8 316.67 333.87 326.68 345.51 327.66 350.41 325.7 355.15 327.66 358.59 330.62 365.84 336.51 379.67 336.9 385.29 333.95 389.8 327.66 394.89 326.88 397.79 329.63 398.17 332.78 400.9 330.42 403.44 324.13 403.26 320.8 405.06 320.8 407.44 324.51 416.33 328.06 419.59 328.06 423.23 333.17 429.42 335.12 435.58 337.68 437.58 341.8 437.58 343.39 440.51 352.02 442.47 357.91 441.4 361.25 441.94 358.7 445 358.7 447.2 365.37 449.38 372.26 455.36 376.98 462.27 380.91 467.89 386.38 469.79 388.63 469.08 394.05 471.14 397.5 471.41 408.03 475.17 412.15 475.45 413.54 473.52 416.58 473.34 419.04 476.27 432.36 488.23 435.9 488.78 443.76 496.24 455.55 500.6 469.1 502.4 475.58 505.47 478.92 510.59 486.59 511.13 493.66 514.23 497.59 512.74 499.16 513.86 502.89 519.48 509.76 522.38 514.28 522.77 516.45 522.21 521.54 525.1 531.56 528.73 541 528.73 548.26 532.37 561.83 536.92 567.31 536.54 581.27 531.11 587.17 530.74 594.63 526.18 600.13 525.3 607.02 524.76 609.76 525.1 609.76 523.68 604.45 522.94 599.93 522.94 600.13 520.55 606.21 517.29 608.18 518.2 608.18 520.94 611.51 519.32 615.05 519.32 615.05 521.47 612.3 521.66 611.13 522.77 613.09 523.68 617.02 523.46 621.93 525.1 630.18 530.01 633.91 533.1 633.91 531.65 627.63 525.82 618.78 522.21 618.4 520.75 620.38 520.55 621.34 521.47 626.64 522.38 631.36 526.18 636.07 531.65 636.07 533.83 638.43 536.74 657.28 551.25 663.18 552.87 663.98 555.79 671.63 561.24 675.89 566.08 676.81 565.37 677.89 562.64"/><path class="cls-2" d="M1809.02,880.14l-.79,1.81,2.16,6.34,2.75,3.82c.4,0,2.95,.36,2.95,.36l.58-3.43-3.93-6.55-3.72-2.34Z"/><polygon class="cls-2" points="1804.6 943.97 1802.63 944.52 1800.17 944.26 1797.62 945.27 1792.49 950.09 1789.34 958.23 1791.42 957.76 1792.3 955.93 1798.31 950.55 1801.16 950.29 1805.78 945.83 1804.6 943.97"/><polygon class="cls-2" points="1840.23 945.54 1842.2 942.65 1839.15 940.54 1835.41 940.71 1834.22 942.89 1830.1 944.52 1834.13 945.9 1840.23 945.54"/><polygon class="cls-2" points="1796.33 955.84 1794.27 958.39 1795.85 958.77 1799.88 958.04 1801.35 954.82 1800.07 953.66 1796.33 955.84"/><polygon class="cls-2" points="1823.99 940 1826.06 941.18 1829.6 939.61 1830.69 936.42 1827.63 934.15 1819.95 935.98 1815.91 936.36 1814.83 938.51 1817.3 939.8 1823.99 940"/><polygon class="cls-2" points="1815.83 932.33 1818.48 928.49 1821.52 927.58 1823.8 924.04 1821.34 923.67 1817.69 926.24 1814.94 927.5 1811.87 930.69 1812.87 935.15 1815.83 932.33"/><polygon class="cls-2" points="1808.24 939.61 1809.81 941.82 1812.58 942.65 1812.78 940.26 1812.08 938.18 1808.74 936.71 1808.24 939.61"/><polygon class="cls-2" points="1705.29 803.48 1700.97 808.85 1701.56 815.78 1703.62 820.79 1702.93 826.44 1702.93 830.63 1707.85 833.37 1710.02 837.36 1713.06 841.94 1714.15 847.12 1715.15 849.42 1714.25 853.76 1709.92 857.71 1710.51 864.07 1712.48 867.37 1709.92 872.9 1703.32 877.02 1701.92 876.74 1702.89 879.13 1704.62 883.22 1706.08 884.41 1706.04 886.89 1709.78 890.75 1714.45 891.5 1717.41 888.5 1721.25 887.14 1724.28 887.41 1724.99 889.48 1726.95 890.31 1727.16 896.96 1730.4 897.98 1735.22 894.7 1736.3 890.58 1739.16 888.7 1743.88 887.96 1747.22 881.84 1751.65 875.19 1756.87 864.71 1756.97 860.16 1764.05 851.7 1770.74 844.04 1772.81 841.1 1773.13 840.82 1777.78 835.09 1777.39 828.73 1772.48 823.66 1770.12 826 1766.78 823.29 1766.18 819.28 1756.57 810.03 1754.02 809.14 1747.73 803.5 1732.4 799.86 1725.53 796.03 1717.48 795.32 1712.56 798.6 1707.66 801.13 1707.67 801.11 1707.44 801.29 1705.29 803.48"/><polygon class="cls-2" points="1628.92 799.3 1629.12 802.82 1625.29 806.94 1620.36 809.3 1613.67 809.49 1610.12 815.68 1609.92 821.07 1605.3 831.64 1605.8 834.82 1610.7 837.19 1613.96 840.68 1614.75 843.2 1617.9 847.12 1618.19 850.4 1621.35 852.94 1624.88 853.13 1626.96 854.71 1628.03 858.41 1630.19 866.01 1630 871.09 1632.86 873.08 1637.29 877.84 1637.97 882.2 1643.49 884.21 1643.49 886.23 1645.06 889.48 1648.91 892 1649.38 892.13 1651.65 892.19 1653.33 893.38 1660.22 895.14 1664.84 894.96 1665.83 893.07 1663.27 887.58 1662 884.67 1656.97 880.13 1657.86 875.55 1663.18 872.3 1669.28 873.73 1680.59 873.28 1685.81 871.09 1692.9 871.37 1698.21 876.02 1701.92 876.74 1703.32 877.02 1709.92 872.9 1712.48 867.37 1710.51 864.07 1709.92 857.71 1714.25 853.76 1715.15 849.42 1714.15 847.12 1713.06 841.94 1710.02 837.36 1707.85 833.37 1702.93 830.63 1702.93 826.44 1703.62 820.79 1701.56 815.78 1700.97 808.85 1705.29 803.48 1707.44 801.29 1707.67 801.11 1712.96 795.15 1712.56 791.69 1706.87 789.32 1697.43 787.86 1686.64 784.06 1683.1 784.44 1678.19 786.42 1669.75 785.68 1659.14 787.7 1650.29 785.32 1638.32 785.52 1631.43 787.86 1630.27 793.63 1630.3 794.21 1628.92 799.3"/><polygon class="cls-2" points="1544.94 733.39 1539.25 737.39 1535.11 737.02 1527.65 745.18 1529.81 748.63 1531.77 754.06 1539.04 754.44 1543.57 757.72 1543.57 763.7 1534.71 767.34 1530.01 765.71 1526.26 767.53 1521.95 765.71 1518.22 769.7 1517.04 777.32 1511.55 782.05 1514.1 788.4 1521.16 797.48 1531.38 805.3 1531.43 805.84 1534.13 806.2 1536.29 808.4 1539.25 806.57 1545.33 807.11 1549.85 812.37 1549.85 819.1 1546.51 823.98 1544.16 827.09 1548.86 829.25 1554.57 828.91 1556.33 832.53 1558.9 836.16 1564 835.8 1564.19 838.53 1559.27 844.15 1557.51 851.07 1552.2 859.59 1552.6 865.03 1550.63 868.68 1549.85 873.23 1551.22 875.78 1550.04 879.19 1550.63 884.29 1555.54 889.02 1561.44 894.46 1561.64 898.09 1565.56 902.63 1576.37 911.17 1580.69 912.79 1584.03 908.8 1587.77 907.9 1588.56 909.52 1594.83 908.99 1598.57 904.83 1599.36 902.44 1605.05 900.82 1616.25 901.19 1619.4 893.19 1625.1 891 1633.13 890.63 1635.3 892.83 1640.22 892.11 1649.05 892.11 1648.91 892 1645.06 889.48 1643.49 886.23 1643.49 884.21 1637.97 882.2 1637.29 877.84 1632.86 873.08 1630 871.09 1630.19 866.01 1628.03 858.41 1626.96 854.71 1624.88 853.13 1621.35 852.94 1618.19 850.4 1617.9 847.12 1614.75 843.2 1613.96 840.68 1610.7 837.19 1605.8 834.82 1605.3 831.64 1609.92 821.07 1610.12 815.68 1613.67 809.49 1620.36 809.3 1625.29 806.94 1629.12 802.82 1628.92 799.3 1630.3 794.21 1630.27 793.63 1630.26 793.67 1628.69 788.6 1628.69 782.43 1626.92 778.62 1616.7 776.06 1607.87 767.53 1602.85 763.9 1599.52 765.47 1594.01 767.21 1590.25 771.12 1589.09 775.84 1588.09 769.84 1589.28 762.03 1591.05 757.47 1588.3 749.15 1584.16 746.26 1573.44 740.14 1566.25 732.66 1565.56 728.66 1560.33 724.03 1555.32 723 1553.8 722.11 1553 724.47 1544.94 733.39"/><polygon class="cls-2" points="1320.89 623.24 1323.24 627.42 1326.97 627.97 1330.11 631.78 1331.3 627.62 1326.19 622.89 1320.89 623.24"/><polygon class="cls-2" points="1276.88 615.62 1280.42 620.17 1285.73 619.98 1281.01 615.97 1276.88 615.62"/><path class="cls-2" d="M1439.33,659.22l5.52,1.38,4.34-4.91-2.37-3.37-8.09,5.64-2.66-3.28-5.62,3.81c.1-.09,2.85,1.92,2.85,1.92l6.02-1.19Z"/><polygon class="cls-2" points="1241.95 634.82 1227.97 639.82 1219.81 651.48 1217.25 654.36 1212.54 655.47 1208.22 661.29 1203.9 664.74 1195.25 676.16 1193.67 681.25 1195.45 685.62 1194.66 693.98 1190.53 702.16 1189.94 704.68 1193.48 704.32 1198.2 704.48 1208.96 722.73 1213.79 729.48 1215.17 734.23 1212.42 739.68 1212.8 743.16 1210.93 746.07 1211.24 749.72 1217.43 754.44 1225.11 757.56 1229.94 758.11 1235.64 760.65 1240.06 758.58 1240.07 758.58 1240.07 758.58 1247.06 758.74 1253.65 760.56 1255.62 759.03 1263.49 757.72 1272.16 759.29 1277.08 761.17 1297.64 779.98 1305.11 778.49 1307.1 780.07 1309.25 779.33 1314.77 780.89 1318.32 782.72 1323.43 780.07 1328.85 779.98 1336.33 780.62 1337.71 779.24 1342.43 779.06 1346.86 781.13 1348.53 790.92 1346.37 794.9 1346.37 799.37 1344.59 802.5 1338.1 804.3 1335.05 807.76 1336.62 816.78 1337.21 820.07 1335.13 826.39 1335.32 834.35 1338.27 838.33 1338.47 841.26 1344.36 854.71 1335.54 869.53 1336.33 873.19 1339.28 874.08 1341.94 872.3 1343.11 873.45 1344.3 877.49 1346.95 878.94 1349.81 883.92 1348.34 886.77 1351.48 893.14 1356.9 905.89 1357.38 910.74 1357.05 910.77 1367.52 917.39 1378.35 925.13 1384.64 925.95 1395.77 925.43 1402.17 918.29 1411.54 912.63 1416.06 907.71 1430.01 901.01 1432.56 894.46 1434.82 892.19 1437.07 889.91 1449.85 887.56 1456.14 884.84 1455.74 879.76 1447.11 878.12 1438.46 879.04 1425.88 875.21 1427.65 866.85 1426.08 864.14 1424.71 861.77 1432.37 850.88 1430.4 846.17 1424.51 841.06 1418.82 839.08 1415.27 832.89 1423.13 835.09 1431.58 836.33 1440.03 840.72 1449.47 840.17 1461.64 838.71 1464.59 840.53 1473.24 837.82 1482.07 830.54 1489.73 829.81 1494.25 831.8 1494.25 831.8 1506.43 827.09 1515.27 826.39 1529.42 817.08 1531.97 811.12 1531.43 805.84 1531.38 805.3 1521.16 797.48 1514.1 788.4 1511.55 782.05 1517.04 777.32 1518.22 769.7 1521.95 765.71 1526.26 767.53 1530.01 765.71 1534.71 767.34 1543.57 763.7 1543.57 757.72 1539.04 754.44 1531.77 754.06 1529.81 748.63 1527.65 745.18 1535.11 737.02 1539.25 737.39 1544.94 733.39 1553 724.47 1553.8 722.11 1552.38 721.27 1541.93 716.91 1538.2 716.8 1534.56 718.19 1529.05 717.08 1526.01 717.19 1521.58 719.01 1512.81 720.29 1506.41 719.64 1503.16 719.24 1508.86 718.33 1512 718.69 1515.93 716.32 1518.29 712.33 1523.99 708.34 1525.16 705.79 1521.43 703.43 1521.82 701.81 1520.24 697.79 1512.79 694.15 1503.74 691.99 1500.99 689.44 1497.66 687.46 1492.36 687.28 1490.6 684.9 1485.09 682.73 1482.13 682.89 1482.34 687.08 1478.8 682.73 1476.64 677.82 1471.14 675.29 1469.57 672.57 1472.52 670.39 1484.69 670.75 1489.21 668.01 1496.87 667.29 1497.66 663.11 1490.6 664.4 1478.4 662.03 1469.57 663.11 1463.67 662.76 1451.7 666.75 1447.57 665.13 1442.65 665.65 1432.63 672.2 1427.52 673.3 1421.43 676.2 1419.07 678.93 1411.03 679.84 1408.47 681.26 1404.33 679.99 1392.37 672.57 1390.02 668.01 1386.47 667.48 1373.12 668.38 1347.39 672.38 1334.82 672.38 1329.9 670.02 1327.93 666.38 1327.93 662.03 1331.08 661.85 1330.5 656.77 1325 649.86 1319.88 648.59 1306.92 649.5 1301.02 646.42 1296.7 646.23 1293.17 647.33 1288.65 640.6 1288.65 633.88 1286.7 625.54 1284.13 624.62 1276.47 627.54 1269 635.7 1270.77 641.16 1273.33 643.33 1278.43 640.79 1283.34 641.16 1287.67 645.5 1286.88 648.59 1282.17 649.86 1276.65 647.5 1274.12 645.87 1272.93 647.33 1272.74 649.33 1266.45 652.42 1254.47 654.39 1242.49 659.13 1238.75 663.49 1238.75 667.68 1241.8 672.91 1241.8 683.08 1242.97 689.97 1245.34 695.8 1241.4 703.45 1231.96 708.54 1227.24 707.82 1227.24 700.55 1221.73 694.73 1220.15 689.64 1225.26 685.62 1225.66 682.73 1235.9 673.27 1235.9 665.25 1232.66 660.02 1233.05 657.67 1232.87 654.58 1228.55 651.68 1226.37 647.5 1227.76 644.05 1234.03 641.51 1240.53 640.05 1246.24 633.96 1243.22 633.9 1241.95 634.82"/><polygon class="cls-2" points="1302.82 621.07 1301.25 623.6 1303.8 628.5 1309.89 629.78 1312.63 627.06 1307.92 626.49 1302.82 621.07"/><polygon class="cls-2" points="1046.96 914.77 1059.18 922.12 1064 922.2 1070.39 928.41 1069.41 932.16 1070.49 935.42 1078.85 936.06 1088.41 940.33 1091.65 942.45 1100.42 944.26 1103.76 941.45 1103.46 936.26 1107.45 933.35 1109.35 933.4 1117.52 936.09 1121.8 938.26 1123 941.56 1126.68 943.45 1127.3 943.81 1129.24 943.67 1132.38 946.57 1142.21 948.77 1148.3 950.02 1149.87 952.74 1156.36 959.85 1156.95 964.55 1161.46 972.38 1165 972.38 1177.96 976.36 1183.46 983.82 1183.26 989.82 1185.23 990.35 1189.75 992.35 1192.11 998.71 1190.35 1001.25 1191.91 1004.88 1197.02 1006.87 1202.7 1005.6 1207.42 1006.71 1214.1 1006.51 1216.86 1004.33 1225.51 1000.7 1232.96 1001.99 1239.45 1004.88 1248.88 1001.08 1253.8 1001.08 1255.96 1003.97 1259.1 1003.79 1265.18 1006.51 1267.93 1009.98 1273.24 1008.33 1273.64 1011.79 1255.96 1039.37 1256.93 1042.48 1263.04 1041.94 1269.9 1041.38 1274.03 1045.57 1275.37 1051.04 1279.93 1037.12 1295.24 984.53 1295.44 980.73 1295.84 972.2 1289.14 961.3 1278.94 954.02 1274.23 948.41 1273.43 934.59 1291.71 928.8 1298.19 932.78 1299.58 928.61 1296.43 925.52 1299.37 922.45 1295.44 915.7 1285.03 913.16 1282.48 907.17 1284.26 898.99 1315.1 898.83 1318.43 895.35 1323.73 895.35 1326.68 897.92 1330.22 897.37 1335.53 891.92 1342.99 890.1 1344.48 893.98 1349.01 899.08 1350.1 904.64 1349.91 911.54 1357.05 910.77 1357.38 910.74 1356.9 905.89 1351.48 893.14 1348.34 886.77 1349.81 883.92 1346.95 878.94 1344.3 877.49 1343.11 873.45 1341.94 872.3 1339.28 874.08 1336.33 873.19 1335.54 869.53 1344.36 854.71 1338.47 841.26 1338.27 838.33 1335.32 834.35 1335.13 826.39 1335.13 826.34 1337.21 820.07 1336.62 816.78 1335.05 807.76 1338.1 804.3 1344.59 802.5 1346.37 799.37 1346.37 794.9 1348.53 790.92 1346.86 781.17 1342.43 779.06 1337.71 779.24 1336.33 780.62 1328.85 779.98 1323.43 780.07 1318.32 782.72 1314.77 780.89 1309.25 779.33 1307.1 780.07 1305.11 778.49 1297.64 779.98 1277.08 761.17 1272.16 759.29 1263.49 757.72 1255.62 759.03 1253.65 760.56 1247.06 758.74 1240.07 758.58 1240.07 758.58 1235.64 760.65 1229.94 758.11 1225.11 757.56 1217.43 754.47 1211.24 749.72 1210.93 746.07 1212.8 743.16 1212.42 739.68 1215.17 734.23 1213.79 729.48 1208.96 722.73 1198.2 704.48 1193.48 704.32 1189.94 704.68 1190.53 702.16 1194.66 693.98 1195.45 685.62 1193.67 681.25 1195.25 676.16 1203.9 664.74 1208.22 661.29 1212.54 655.47 1217.25 654.36 1219.81 651.48 1227.97 639.82 1241.95 634.82 1243.22 633.9 1246.24 633.96 1247.02 633.15 1250.14 630.97 1251.32 628.06 1248.18 624.26 1238.36 619.34 1234.43 619.17 1233.05 621.35 1232.66 623.72 1228.55 624.26 1226.37 625.88 1221.86 625.34 1217.93 626.8 1215.76 629.17 1218.13 631.7 1216.36 634.07 1209.29 637.32 1199.85 642.59 1193.58 646.8 1186.3 648.21 1178.25 648.75 1169.41 647.84 1163.9 650.57 1164.3 653.67 1166.06 657.67 1165.48 661.67 1161.36 665.11 1158.61 664.02 1159.59 660.02 1158.99 658.76 1162.93 657.48 1157.24 656.94 1150.35 654.23 1146.82 654.39 1137.78 659.49 1135.62 662.93 1129.53 669.47 1122.27 682.19 1121.28 685.81 1123.44 684.9 1125.41 686.9 1126.19 691.09 1124.62 695.63 1120.69 697.43 1115.58 697.79 1111.65 699.8 1104.59 706.13 1101.64 707.61 1096.33 714.86 1093.2 715.22 1088.67 715.41 1090.24 720.15 1094.96 725.04 1094.96 731.22 1092.21 736.65 1089.26 736.48 1084.35 732.66 1084.94 730.86 1086.7 727.95 1082.59 726.33 1080.81 721.58 1074.8 716.71 1073.65 721.1 1074.53 724.39 1076.99 730.68 1073.06 737.13 1071.18 743.25 1067.84 745.7 1065.18 745.87 1061.62 753.47 1062.77 754.44 1063.95 760.26 1064.45 766.02 1069.85 772.12 1071.94 771.95 1074.58 770.68 1076.05 772.95 1076.74 778.49 1073.4 781.95 1073.3 784.15 1076.55 787.42 1076.55 794.45 1072.99 796.91 1070.84 800.55 1072.99 801.37 1075.17 806 1074.49 814.5 1074.96 826.25 1071.24 830.35 1070.55 833.89 1073.78 838.1 1078.6 836.18 1077.93 838.98 1080.68 842.65 1083.53 842.38 1083.82 844.74 1081.01 848.01 1078.66 853.63 1068.44 863.03 1065.7 868.32 1058.03 875.21 1047.83 877.31 1039.96 882.76 1032.49 893.32 1031.31 901.69 1030.1 906.3 1038.01 909.11 1046.96 914.77"/><polygon class="cls-2" points="999.68 1014.88 994.76 1018.95 991.81 1023.44 992.1 1025.25 993.79 1027.24 996.93 1026.35 998.99 1022.62 998.61 1019.51 1000.08 1016.15 999.68 1014.88"/><polygon class="cls-2" points="1493.17 509.02 1497.09 508.3 1495.14 504.11 1493.17 509.02"/><polygon class="cls-2" points="1506.72 514.83 1504.95 519.93 1511.83 529.56 1515.36 520.11 1510.26 514.66 1506.72 514.83"/><polygon class="cls-2" points="1523.21 526.3 1518.7 529.17 1522.63 530.8 1523.21 526.3"/><polygon class="cls-2" points="1515.18 514.3 1518.31 519.57 1524.59 520.11 1520.67 509.54 1515.18 514.3"/><path class="cls-2" d="M1516.14,548.41l5.11-1.08-.19-7.07-4.11-4.01c-.26,.39-2.96,4.37-2.96,4.37l2.15,7.78Z"/><path class="cls-2" d="M1516.94,536.26h0s.02-.05,0,0Z"/><polygon class="cls-2" points="1525.38 569.68 1529.71 571.67 1530.1 567.14 1527.34 558.05 1516.14 555.35 1516.14 559.32 1523.02 565.86 1521.84 569.33 1525.38 569.68"/><polygon class="cls-2" points="1527.55 576.75 1521.06 584.75 1522.04 589.64 1526.56 591.64 1529.31 584.75 1527.55 576.75"/><polygon class="cls-2" points="1561.95 600.93 1565.4 605.37 1572.21 605.18 1572.01 600.45 1567.07 596.08 1561.95 600.93"/><line class="cls-2" x1="1515.18" y1="617.05" x2="1515.2" y2="617.08"/><polygon class="cls-2" points="1519.87 594.55 1518.11 607.63 1522.24 600.17 1519.87 594.55"/><polygon class="cls-2" points="1505.15 626.49 1503.19 632.49 1509.67 632.68 1513.01 628.51 1510.84 625.44 1505.15 626.49"/><path class="cls-2" d="M1517.92,621.8l-2.72-4.71c-.02,.41-1.41,4.71-1.41,4.71h4.13Z"/><polygon class="cls-2" points="1526.46 659.97 1516.51 663.95 1511.58 662.03 1505.46 663.68 1503.8 666.67 1509.02 670.88 1509.4 675.52 1504.1 679.78 1498.47 681.77 1504.68 684.07 1518.09 682.07 1523.7 677.68 1523.51 672.15 1520.65 667.69 1526.85 661.88 1526.46 659.97"/><polygon class="cls-2" points="1534.84 653.5 1529.22 655.86 1533.86 657.69 1534.84 653.5"/><polyline class="cls-2" points="762.54 480.35 761.85 527.3 765.78 527.46 767.37 528.27 770.3 528.1"/></g></svg>